<svg xmlns="http://www.w3.org/2000/svg" width="1080" height="1920" viewBox="0 0 1080 1920">

<defs>
  <linearGradient id="bg" x1="0" y1="0" x2="1" y2="1"><stop stop-color="#10261A"/><stop offset="1" stop-color="#06120A"/></linearGradient>
  <linearGradient id="green" x1="0" y1="0" x2="1" y2="1"><stop stop-color="#5CFFAD"/><stop offset="1" stop-color="#00A653"/></linearGradient>
  <linearGradient id="gold" x1="0" y1="0" x2="1" y2="1"><stop stop-color="#FFE49A"/><stop offset="1" stop-color="#C98900"/></linearGradient>
  <linearGradient id="red" x1="0" y1="0" x2="1" y2="1"><stop stop-color="#FF6B6B"/><stop offset="1" stop-color="#9B122B"/></linearGradient>
  <filter id="shadow"><feDropShadow dx="0" dy="24" stdDeviation="32" flood-color="#000" flood-opacity=".45"/></filter>
  <filter id="glow"><feGaussianBlur stdDeviation="14" result="b"/><feMerge><feMergeNode in="b"/><feMergeNode in="SourceGraphic"/></feMerge></filter>
</defs>

<rect width="1080" height="1920" fill="url(#bg)"/>
<g opacity=".14" stroke="#FFFFFF"><path d="M0 420H1080M0 620H1080M0 820H1080M0 1020H1080M0 1220H1080M0 1420H1080"/><path d="M180 0V1920M380 0V1920M580 0V1920M780 0V1920M980 0V1920"/></g>

<text x="540" y="410" text-anchor="middle" fill="#FFFFFF" font-family="Inter,Arial" font-size="60" font-weight="800">KONTO 2: RÜCKLAGE</text>
<g filter="url(#shadow)">
  <path d="M540 590C720 650 830 720 830 930V1190C830 1350 690 1450 540 1515C390 1450 250 1350 250 1190V930C250 720 360 650 540 590z" fill="#0E3B27" stroke="#5CFFAD" stroke-width="7"/>
  <rect x="360" y="820" width="360" height="420" rx="48" fill="#07150C" stroke="#FFFFFF" stroke-opacity=".18" stroke-width="4"/>
  <circle cx="540" cy="1030" r="92" fill="url(#green)"/>
  <path d="M490 1030l36 38 76-92" fill="none" stroke="#062111" stroke-width="28" stroke-linecap="round" stroke-linejoin="round"/>
  <text x="540" y="1320" text-anchor="middle" fill="#7BFFC0" font-family="Inter,Arial" font-size="42" font-weight="800">NOTFALL + PLANUNG</text>
</g>
<g font-family="Inter,Arial" font-size="35" font-weight="800" text-anchor="middle">
  <rect x="170" y="1555" width="330" height="105" rx="34" fill="#3D8BFF" fill-opacity=".22" stroke="#8FBEFF" stroke-width="3"/><text x="335" y="1620" fill="#CFE1FF">REPARATUR</text>
  <rect x="580" y="1555" width="330" height="105" rx="34" fill="#B98CFF" fill-opacity=".20" stroke="#D9C4FF" stroke-width="3"/><text x="745" y="1620" fill="#E7DAFF">ANSCHAFFUNG</text>
</g>

</svg>